@startuml
skinparam linetype ortho
skinparam class {
  BorderColor Black
  ArrowColor Crimson
}
hide circle
hide methods

entity "Bar" {
  * **a** : string <<PK>>
  * x : Source.Foo.x <<FK>>
  * y : Source.Foo.y <<FK>>
  --
  b : int
}

entity "Foo" {
  * x : int
  * y : int
  z : int
}

"Bar" }o--|| "Foo"
"Bar" }o--|| "Foo"

@enduml
